# xmcd
#
# Track frame offsets:
#	150
#	18500
#	40420
#	57425
#	85767
#	106412
#	128512
#	144337
#	161075
#	183987
#
# Disc length: 2806 seconds
#
# Revision: 3
# Processed by: cddbd v1.5.1PL0 Copyright (c) Steve Scherf et al.
# Submitted via: EasyCDDAExtractor 8.2.1.1
#
DISCID=7f0af40a
DTITLE=Various Artist - Silky Soul
DYEAR=1900
DGENRE=Blues
TTITLE0=Solomon Burke - It Don't Get No Better Than This
TTITLE1=Ann Peebles - Just You Just Me
TTITLE2=Paul Kelly - Personally
TTITLE3=Johnny Adams - Neither One Of Us (Wants To Be The First To Say Goodbye
TTITLE3=)
TTITLE4=Chuck Carbo - I'd Rather Beg
TTITLE5=Otis Clay - Gonna Take My Heart's Advice
TTITLE6=Little Buster and the Soul Brothers - Whatever It Takes
TTITLE7=Dalton Reed - Willing And Able
TTITLE8=Irma Thomas - Can't You Hear It In My Tears
TTITLE9=Walter "Wolfman" Washington - Out Of The Dark
EXTD=
EXTT0=
EXTT1=
EXTT2=
EXTT3=
EXTT4=
EXTT5=
EXTT6=
EXTT7=
EXTT8=
EXTT9=
PLAYORDER=
